# xmcd
#
# Track frame offsets:
#	150
#	21085
#	40912
#	61925
#	77875
#	96780
#	110370
#	131457
#	146302
#	160982
# Disc length: 2473 seconds
# Revision: 3
# Processed by: cddbd v1.5.2PL0 Copyright (c) Steve Scherf et al.
#
# Submitted via: libkcddb 0.31
#
DISCID=7a09a70a
DTITLE=T-Model Ford - Bad Man
DYEAR=2002
DGENRE=Blues
TTITLE0=Ask Her For Water
TTITLE1=Everything's Gonna Be Alright
TTITLE2=Yes, I'm Standing
TTITLE3=Bad Man
TTITLE4=Somebody's Knockin'
TTITLE5=Let The Church Roll On
TTITLE6=Black Nanny
TTITLE7=Backdoor Man
TTITLE8=The Duke
TTITLE9=Sallie Mae
EXTD=T-Model Ford (born James Lewis Carter Ford in Forest, Mississippi, 1924) is a blues musician. \nT-Model Ford was nearing his 60th birthday before he picked up the guitar, and he was 78 when this album was recorded, but you wouldn't know it when youli
EXTD=sten to "Bad Man", his fourth album.
EXTT0=
EXTT1=
EXTT2=
EXTT3=
EXTT4=
EXTT5=
EXTT6=
EXTT7=
EXTT8=
EXTT9=
PLAYORDER=
